<svg width="240" height="48" viewBox="0 0 240 48" fill="none" xmlns="http://www.w3.org/2000/svg">
<rect width="240" height="48" rx="24" fill="#312E81"/>
<path d="M98.612 16.592H100.756V31.456H98.612V16.592ZM100.276 22.08H102.9V23.824H100.276V22.08ZM89.716 26.128H90.964C93.46 26.128 95.428 26.048 97.604 25.664L97.812 27.424C95.572 27.824 93.54 27.888 90.964 27.888H89.716V26.128ZM89.716 17.968H96.628V19.68H91.828V26.976H89.716V17.968ZM107.475 17.744H109.203V19.904C109.203 23.712 107.891 27.152 104.947 28.512L103.683 26.752C106.259 25.632 107.475 22.784 107.475 19.904V17.744ZM107.891 17.744H109.619V19.904C109.619 22.64 110.787 25.36 113.315 26.448L112.067 28.16C109.203 26.848 107.891 23.552 107.891 19.904V17.744ZM114.019 16.592H116.163V31.456H114.019V16.592ZM123.371 16.944H134.411V18.528H123.371V16.944ZM123.483 20.352H134.299V21.936H123.483V20.352ZM125.259 17.568H127.387V21.44H125.259V17.568ZM130.395 17.568H132.523V21.44H130.395V17.568ZM122.203 22.704H135.595V24.368H122.203V22.704ZM127.819 23.712H129.947V25.776H127.819V23.712ZM123.739 25.312H133.979V28.992H125.851V30.368H123.755V27.568H131.883V26.832H123.739V25.312ZM123.755 29.776H134.363V31.328H123.755V29.776ZM147.129 16.608H149.273V31.424H147.129V16.608ZM142.761 18.144H144.873C144.873 22.672 143.337 26.384 138.073 28.928L136.969 27.232C141.225 25.184 142.761 22.496 142.761 18.528V18.144ZM137.753 18.144H143.769V19.824H137.753V18.144Z" fill="white"/>
</svg>
